PathFileType	4	(x/y/z)	S05_M20_T08
DataRate	CameraRate	NumFrames	NumMarkers	Units	OrigDataRate	OrigDataStartFrame	OrigNumFrames
240	240	11	50	mm	240	195	518
Frame#	Time	Sternum			R.Acromium			L.Acromium			Top.Head			R.ASIS			L.ASIS			R.PSIS			L.PSIS			R.Great.Tro			L.Great.Tro			R.Iliac.Crest			L.Iliac.Crest			V.Sacral			R.Thigh.Upper.Post			R.Thigh.Lower.Ant			R.Thigh.Lower.Post			R.Thigh.Upper.Ant			R.Knee.Lat			R.Knee.Med			R.Shank.Upper.Post			R.Shank.Lower.Ant			R.Shank.Lower.Post			R.Shank.Upper.Ant			R.Ankle.Lat			R.Ankle.Med			R.Heel.Upper			R.Heel.Med			R.Heel.Lat			R.Toe.Lat			R.Toe.Med			R.Toe.Tip			L.Thigh.Upper.Post			L.Thigh.Lower.Ant			L.Thigh.Lower.Post			L.Thigh.Upper.Ant			L.Knee.Lat			L.Shank.Upper.Post			L.Shank.Lower.Ant			L.Shank.Lower.Post			L.Shank.Upper.Ant			L.Ankle.Lat			L.Ankle.Med			L.Heel.Upper			L.Heel.Med			L.Heel.Lat			L.Toe.Lat			L.Toe.Med			L.Toe.Tip			Cervical.Spine			Back			
		X1	Y1	Z1	X2	Y2	Z2	X3	Y3	Z3	X4	Y4	Z4	X5	Y5	Z5	X6	Y6	Z6	X7	Y7	Z7	X8	Y8	Z8	X9	Y9	Z9	X10	Y10	Z10	X11	Y11	Z11	X12	Y12	Z12	X13	Y13	Z13	X14	Y14	Z14	X15	Y15	Z15	X16	Y16	Z16	X17	Y17	Z17	X18	Y18	Z18	X19	Y19	Z19	X20	Y20	Z20	X21	Y21	Z21	X22	Y22	Z22	X23	Y23	Z23	X24	Y24	Z24	X25	Y25	Z25	X26	Y26	Z26	X27	Y27	Z27	X28	Y28	Z28	X29	Y29	Z29	X30	Y30	Z30	X31	Y31	Z31	X32	Y32	Z32	X33	Y33	Z33	X34	Y34	Z34	X35	Y35	Z35	X36	Y36	Z36	X37	Y37	Z37	X38	Y38	Z38	X39	Y39	Z39	X40	Y40	Z40	X41	Y41	Z41	X42	Y42	Z42	X43	Y43	Z43	X44	Y44	Z44	X45	Y45	Z45	X46	Y46	Z46	X47	Y47	Z47	X48	Y48	Z48	X49	Y49	Z49	X50	Y50	Z50	

195	0.80833	192.81	1198.6	283.89	114.55	1452.7	460.14	95.119	1490.3	131.74	86.951	1761.9	314.09	135.99	953.38	401.06	110.16	951.09	152.18	-73.22	977.56	340.26	-78.559	984.29	248.64	73.202	880.38	478.54	-8.4667	888.11	92.963	53.176	1036.2	453.41	22.107	1036.6	119.34	-89.726	945.94	307.16	211.62	687.64	462.94	271.23	639.36	394.8	229.05	600.97	440.69	248.96	723.79	417.34	256.58	518.55	423.08	247.99	499.18	292.42	262.05	266.89	418.84	341.42	224.67	417.61	285.49	194.23	404.06	318.31	298.24	430.34	353.13	120.84	405.25	365.78	147.16	316.2	308.81	63.588	344.4	323.87	32.456	317.86	320.37	39.158	383.22	481.8	62.385	435.58	514.94	73.888	318.93	567.95	113.57	362.01	-98.122	671.72	102.05	-50.781	572.24	107.72	-122.3	580.01	115.29	-21.692	657.31	91.155	-153.48	494.78	117.86	-326.84	378.15	131.46	-314.22	290.57	129.21	-372.3	324.56	153.41	-271.6	345.31	113.71	-436.13	199.6	160.47	-393.49	186.44	241.98	-507.22	193.75	218.91	-509.78	170.39	253.73	-525	169.64	193.58	-400.1	49.18	131.36	-362.99	52.395	248.01	-314.43	38.895	192.56	50.86	1508	306.1	-72.8	1236.4	292.85
196	0.8125	199.61	1199.4	284.99	120.86	1453.3	461.19	101.89	1491.1	132.78	93.071	1762.6	315.46	142.16	954.65	402.22	117.25	951.26	153.29	-66.933	978.39	340.43	-71.863	984.71	248.72	79.26	881.75	479.46	-1.1417	887.77	93.705	59.034	1037.3	454.03	29.448	1036.7	119.84	-83.253	946.61	307.39	217.73	688.84	463.55	277.27	640.49	395.39	235.05	602.14	441.28	255.12	724.95	417.97	262.29	519.38	423.86	253.1	500.03	293.24	266.03	267.56	419.83	345.01	224.71	418.07	288.73	194.73	404.87	322.67	298.49	430.99	355.33	120.73	405.65	368.08	147	316.57	309.98	64.608	344.61	324.47	33.196	317.95	321.04	39.804	383.37	483.04	60.194	435.69	516.55	71.084	318.99	570.36	109.68	362.08	-89.609	670.81	102.26	-41.631	571.63	107.62	-113.2	578.92	115.13	-13.07	656.96	91.492	-144.03	493.93	117.33	-318.65	379.75	131.35	-307.27	292.01	128.85	-364.75	326.76	153.37	-263.94	346.18	113.31	-430.4	202.97	160.33	-387.68	188.8	241.52	-500.6	199.31	218.94	-503.82	176.23	253.86	-519.26	175.73	193.72	-398.75	51.111	131.43	-361.19	53.516	247.83	-313.82	38.509	192.41	57.247	1508.7	307.16	-66.167	1237	293.15
197	0.81667	206.33	1200.2	286.1	127.13	1453.9	462.22	108.66	1491.9	133.81	99.188	1763.3	316.79	148.27	955.99	403.39	124.28	951.5	154.42	-60.693	979.26	340.6	-65.223	985.18	248.81	85.253	883.17	480.37	6.1863	887.45	94.44	64.817	1038.5	454.65	36.74	1036.9	120.35	-76.833	947.34	307.61	223.78	690.08	464.19	283.28	641.68	396.04	241.02	603.37	441.92	261.24	726.16	418.65	267.96	520.26	424.68	258.21	500.94	294.1	269.9	268.27	420.91	348.48	224.79	418.57	291.84	195.27	405.77	326.92	298.77	431.71	357.4	120.62	406.07	370.2	146.9	316.99	311.05	65.559	344.83	325.02	33.915	318.06	321.66	40.4	383.53	484.16	58.155	435.83	517.98	68.511	319.06	572.52	106.04	362.17	-80.923	669.85	102.41	-32.24	571	107.51	-103.87	577.76	114.93	-4.2644	656.61	91.827	-134.29	493.01	116.78	-310.13	381.35	131.22	-300	293.47	128.51	-356.89	328.98	153.31	-255.97	347.04	112.92	-424.36	206.44	160.2	-381.57	191.23	241.1	-493.62	204.99	219	-497.49	182.2	254.01	-513.16	181.98	193.88	-397.22	53.258	131.5	-359.17	54.805	247.63	-313.09	38.131	192.22	63.599	1509.4	308.18	-59.579	1237.7	293.43
198	0.82083	212.99	1201	287.24	133.35	1454.6	463.22	115.43	1492.8	134.81	105.3	1764.2	318.1	154.34	957.39	404.58	131.27	951.81	155.57	-54.498	980.18	340.78	-58.641	985.7	248.91	91.192	884.64	481.29	13.509	887.17	95.169	70.539	1039.7	455.28	43.972	1037.2	120.86	-70.463	948.11	307.84	229.77	691.35	464.88	289.24	642.89	396.74	246.92	604.62	442.59	267.3	727.4	419.38	273.57	521.17	425.53	263.3	501.89	294.99	273.65	269.01	422.06	351.82	224.89	419.09	294.82	195.83	406.73	331.07	299.07	432.47	359.32	120.52	406.5	372.16	146.84	317.44	312.02	66.439	345.06	325.52	34.608	318.17	322.23	40.945	383.69	485.15	56.263	435.97	519.24	66.155	319.15	574.45	102.67	362.29	-72.07	668.84	102.51	-22.616	570.36	107.41	-94.307	576.54	114.69	4.7185	656.26	92.16	-124.26	492.03	116.21	-301.27	382.95	131.08	-292.43	294.94	128.18	-348.7	331.23	153.25	-247.69	347.9	112.55	-418.02	210	160.1	-375.18	193.74	240.72	-486.28	210.79	219.09	-490.8	188.29	254.19	-506.68	188.39	194.06	-395.48	55.63	131.58	-356.93	56.267	247.41	-312.22	37.773	191.98	69.912	1510.3	309.16	-53.038	1238.5	293.69
199	0.825	219.58	1202	288.38	139.53	1455.5	464.19	122.19	1493.7	135.79	111.41	1765.1	319.36	160.36	958.84	405.77	138.19	952.19	156.73	-48.344	981.13	340.97	-52.118	986.25	249.03	97.084	886.12	482.2	20.818	886.92	95.894	76.211	1041	455.92	51.128	1037.5	121.37	-64.143	948.91	308.09	235.68	692.6	465.61	295.13	644.09	397.51	252.73	605.87	443.31	273.31	728.62	420.18	279.12	522.09	426.39	268.35	502.87	295.89	277.28	269.75	423.28	355.03	225	419.63	297.65	196.42	407.73	335.11	299.36	433.26	361.12	120.41	406.94	373.96	146.83	317.92	312.89	67.246	345.3	325.98	35.266	318.3	322.76	41.437	383.86	486.03	54.512	436.13	520.34	64.004	319.24	576.16	99.536	362.42	-63.056	667.79	102.56	-12.769	569.72	107.31	-84.523	575.28	114.41	13.871	655.91	92.493	-113.95	491	115.65	-292.1	384.55	130.93	-284.55	296.43	127.88	-340.19	333.51	153.18	-239.09	348.75	112.19	-411.37	213.66	160.02	-368.5	196.33	240.37	-478.57	216.68	219.2	-483.75	194.47	254.38	-499.83	194.93	194.26	-393.51	58.232	131.66	-354.43	57.909	247.17	-311.19	37.448	191.69	76.184	1511.2	310.1	-46.549	1239.4	293.92
200	0.82917	226.09	1203	289.54	145.65	1456.4	465.14	128.92	1494.7	136.74	117.52	1766	320.59	166.34	960.32	406.97	145.05	952.64	157.9	-42.227	982.1	341.19	-45.657	986.84	249.19	102.94	887.61	483.1	28.106	886.71	96.618	81.846	1042.3	456.58	58.197	1037.8	121.9	-57.871	949.75	308.37	241.49	693.82	466.38	300.94	645.25	398.32	258.44	607.07	444.06	279.25	729.79	421.02	284.57	522.99	427.26	273.34	503.86	296.8	280.8	270.5	424.52	358.1	225.12	420.18	300.36	197.01	408.76	339.03	299.66	434.07	362.79	120.29	407.37	375.62	146.84	318.41	313.68	67.98	345.54	326.4	35.884	318.43	323.23	41.881	384.03	486.8	52.896	436.29	521.3	62.039	319.34	577.66	96.639	362.55	-53.887	666.7	102.56	-2.7103	569.08	107.22	-74.528	573.97	114.1	23.184	655.58	92.827	-103.37	489.93	115.09	-282.6	386.15	130.78	-276.37	297.94	127.6	-331.37	335.82	153.1	-230.19	349.6	111.86	-404.4	217.4	159.97	-361.52	198.99	240.05	-470.51	222.65	219.34	-476.32	200.72	254.59	-492.61	201.57	194.48	-391.27	61.066	131.73	-351.64	59.733	246.89	-309.95	37.171	191.34	82.412	1512.1	311	-40.111	1240.3	294.15
201	0.83333	232.53	1204	290.69	151.72	1457.4	466.05	135.64	1495.8	137.66	123.62	1767	321.79	172.28	961.81	408.15	151.83	953.16	159.06	-36.146	983.1	341.44	-39.258	987.46	249.38	108.75	889.09	483.99	35.365	886.53	97.343	87.454	1043.6	457.24	65.17	1038.2	122.44	-51.646	950.61	308.69	247.22	694.98	467.2	306.65	646.34	399.19	264.04	608.22	444.85	285.11	730.91	421.92	289.91	523.88	428.13	278.25	504.84	297.71	284.19	271.23	425.76	361.05	225.23	420.71	302.94	197.6	409.78	342.82	299.93	434.87	364.34	120.18	407.78	377.14	146.87	318.9	314.4	68.643	345.78	326.77	36.46	318.56	323.66	42.277	384.19	487.48	51.411	436.45	522.12	60.245	319.44	578.98	93.961	362.69	-44.573	665.58	102.51	7.5479	568.46	107.15	-64.331	572.63	113.77	32.648	655.27	93.163	-92.537	488.83	114.55	-272.79	387.77	130.63	-267.88	299.47	127.36	-322.25	338.16	153.02	-220.99	350.45	111.57	-397.13	221.24	159.93	-354.27	201.72	239.78	-462.1	228.67	219.5	-468.55	207.02	254.83	-485.03	208.29	194.72	-388.73	64.133	131.8	-348.56	61.74	246.59	-308.47	36.961	190.93	88.593	1513.1	311.85	-33.726	1241.2	294.37
202	0.8375	238.9	1205.1	291.84	157.73	1458.5	466.93	142.32	1496.8	138.55	129.72	1768	322.94	178.18	963.32	409.32	158.55	953.74	160.22	-30.098	984.12	341.73	-32.923	988.09	249.62	114.53	890.54	484.88	42.59	886.39	98.071	93.044	1044.9	457.92	72.037	1038.7	122.99	-45.466	951.49	309.04	252.84	696.06	468.05	312.25	647.35	400.09	269.5	609.29	445.66	290.89	731.94	422.87	295.14	524.72	428.99	283.07	505.79	298.61	287.46	271.94	426.98	363.86	225.33	421.23	305.39	198.18	410.79	346.48	300.19	435.64	365.78	120.05	408.17	378.54	146.9	319.38	315.03	69.238	346.01	327.11	36.989	318.69	324.05	42.631	384.35	488.08	50.052	436.61	522.83	58.604	319.53	580.14	91.488	362.82	-35.12	664.45	102.43	17.992	567.85	107.1	-53.946	571.27	113.43	42.253	654.97	93.504	-81.461	487.71	114.03	-262.68	389.39	130.49	-259.11	301.03	127.14	-312.83	340.54	152.94	-211.49	351.32	111.31	-389.55	225.15	159.92	-346.72	204.53	239.54	-453.36	234.72	219.69	-460.42	213.34	255.08	-477.08	215.06	194.98	-385.86	67.427	131.85	-345.14	63.928	246.25	-306.72	36.837	190.44	94.726	1514.1	312.67	-27.395	1242.2	294.6
203	0.84167	245.19	1206.3	292.97	163.68	1459.6	467.78	148.96	1497.9	139.41	135.82	1769.1	324.06	184.05	964.82	410.46	165.18	954.38	161.36	-24.083	985.14	342.07	-26.651	988.74	249.91	120.28	891.97	485.75	49.773	886.29	98.803	98.624	1046.3	458.61	78.79	1039.1	123.56	-39.332	952.38	309.44	258.37	697.06	468.94	317.74	648.26	401.03	274.82	610.27	446.48	296.59	732.87	423.87	300.23	525.52	429.82	287.78	506.71	299.49	290.61	272.63	428.16	366.55	225.41	421.71	307.72	198.74	411.74	349.99	300.41	436.38	367.12	119.93	408.53	379.83	146.95	319.83	315.61	69.768	346.22	327.41	37.472	318.81	324.4	42.947	384.5	488.61	48.813	436.76	523.45	57.101	319.6	581.14	89.205	362.92	-25.539	663.31	102.33	28.607	567.27	107.08	-43.386	569.9	113.08	51.987	654.72	93.852	-70.154	486.57	113.55	-252.28	391.03	130.35	-250.05	302.62	126.97	-303.13	342.94	152.85	-201.72	352.2	111.1	-381.67	229.14	159.93	-338.9	207.42	239.34	-444.3	240.77	219.9	-451.96	219.66	255.35	-468.79	221.86	195.27	-382.63	70.944	131.89	-341.36	66.293	245.86	-304.64	36.824	189.88	100.81	1515.2	313.43	-21.117	1243.2	294.83
204	0.84583	251.4	1207.5	294.08	169.58	1460.8	468.59	155.56	1499	140.24	141.91	1770.2	325.14	189.88	966.3	411.58	171.73	955.09	162.48	-18.101	986.17	342.45	-20.444	989.41	250.26	126	893.35	486.61	56.911	886.23	99.539	104.2	1047.6	459.31	85.427	1039.7	124.14	-33.243	953.28	309.89	263.78	697.96	469.85	323.11	649.07	401.98	280	611.16	447.31	302.21	733.71	424.9	305.19	526.26	430.63	292.39	507.58	300.34	293.62	273.29	429.25	369.09	225.47	422.15	309.93	199.28	412.63	353.35	300.6	437.06	368.35	119.81	408.85	381.02	146.99	320.24	316.12	70.237	346.41	327.68	37.906	318.92	324.72	43.228	384.63	489.07	47.691	436.9	523.97	55.722	319.66	582.02	87.098	363.01	-15.84	662.17	102.19	39.378	566.73	107.1	-32.663	568.54	112.75	61.837	654.5	94.212	-58.631	485.44	113.11	-241.6	392.69	130.23	-240.72	304.25	126.83	-293.15	345.38	152.78	-191.67	353.11	110.93	-373.48	233.19	159.97	-330.81	210.38	239.18	-434.95	246.8	220.15	-443.18	225.93	255.65	-460.18	228.64	195.58	-379.01	74.673	131.91	-337.2	68.827	245.44	-302.21	36.944	189.24	106.84	1516.3	314.16	-14.892	1244.3	295.09
205	0.85	257.55	1208.7	295.17	175.42	1462.1	469.37	162.1	1500.2	141.04	147.99	1771.4	326.17	195.68	967.76	412.68	178.2	955.85	163.58	-12.153	987.21	342.88	-14.302	990.09	250.65	131.68	894.69	487.47	64	886.22	100.28	109.76	1049	460.01	91.943	1040.2	124.74	-27.201	954.18	310.39	269.1	698.76	470.78	328.36	649.76	402.95	285.03	611.95	448.14	307.74	734.43	425.95	310.01	526.94	431.4	296.88	508.39	301.15	296.49	273.91	430.25	371.51	225.51	422.55	312.01	199.8	413.44	356.55	300.76	437.68	369.5	119.69	409.12	382.12	147.03	320.6	316.58	70.648	346.58	327.92	38.292	319.02	325	43.479	384.75	489.48	46.682	437.03	524.41	54.454	319.7	582.78	85.154	363.07	-6.0329	661.05	102.05	50.289	566.23	107.16	-21.793	567.21	112.43	71.793	654.33	94.586	-46.907	484.32	112.72	-230.68	394.37	130.13	-231.13	305.91	126.74	-282.91	347.85	152.71	-181.37	354.04	110.81	-365.01	237.3	160.03	-322.45	213.41	239.05	-425.32	252.78	220.43	-434.11	232.15	255.98	-451.25	235.38	195.92	-374.96	78.601	131.89	-332.64	71.523	244.97	-299.36	37.224	188.52	112.82	1517.5	314.84	-8.7187	1245.4	295.37
